# AST/ASF file generated using VICON BodyLanguage
# -----------------------------------------------
:version 1.10
:name VICON
:units
  mass 1.0
  length 0.45
  angle deg
:documentation
   .ast/.asf automatically generated from VICON data using
   VICON BodyBuilder and BodyLanguage model FoxedUp or BRILLIANT.MOD
:root
   order TX TY TZ RX RY RZ
   axis XYZ
   position 0 0 0  
   orientation 0 0 0 
:bonedata
  begin
     id 1 
     name lhipjoint
     direction 0.693937 -0.600361 0.397515 
     length 2.37164 
     axis 0 0 0  XYZ
  end
  begin
     id 2 
     name lfemur
     direction 0.34202 -0.939693 0  
     length 6.18497  
     axis 0 0 20  XYZ
    dof rx ry rz
    limits (-160.0 20.0)
           (-70.0 70.0)
           (-60.0 70.0)
  end
  begin
     id 3 
     name ltibia
     direction 0.34202 -0.939693 0   
     length 6.91601   
     axis 0 0 20   XYZ
    dof rx
    limits (-10.0 170.0)
  end
  begin
     id 4 
     name lfoot
     direction 0.0978718 -0.2689 0.958182   
     length 1.81453   
     axis -90 7.62852e-016 20   XYZ
    dof rx rz
    limits (-45.0 90.0)
           (-70.0 20.0)
  end
  begin
     id 5 
     name ltoes
     direction 1.53569e-011 -4.21951e-011 1   
     length 0.912052   
     axis -90 7.62852e-016 20   XYZ
    dof rx
    limits (-90.0 20.0)
  end
  begin
     id 6 
     name rhipjoint
     direction -0.643996 -0.637876 0.422354   
     length 2.23216  
     axis 0 0 0  XYZ 
  end
  begin
     id 7 
     name rfemur
     direction -0.34202 -0.939693 0   
     length 6.15404   
     axis 0 0 -20   XYZ
    dof rx ry rz
    limits (-160.0 20.0)
           (-70.0 70.0)
           (-70.0 60.0)
  end
  begin
     id 8 
     name rtibia
     direction -0.34202 -0.939693 0   
     length 6.86744   
     axis 0 0 -20   XYZ
    dof rx
    limits (-10.0 170.0)
 end
 begin
     id 9 
     name rfoot
     direction -0.118701 -0.326127 0.937844   
     length 1.9243  
     axis -90 -7.62852e-016 -20   XYZ
    dof rx rz
    limits (-45.0 90.0)
           (-20.0 70.0)
  end
  begin
     id 10 
     name rtoes
     direction -1.5356e-011 -4.2181e-011 1   
     length 0.958865   
     axis -90 -7.62852e-016 -20   XYZ
    dof rx
    limits (-90.0 20.0)
  end
  begin
     id 11 
     name lowerback
     direction 0.0310826 0.968686 -0.246334   
     length 2.00021   
     axis 0 0 0   XYZ
    dof rx ry rz
    limits (-20.0 45.0)
           (-30.0 30.0)
           (-30.0 30.0)
  end
  begin
     id 12 
     name upperback
     direction -0.0152834 0.999474 -0.0286152   
     length 2.03728   
     axis 0 0 0   XYZ
    dof rx ry rz
    limits (-20.0 45.0)
           (-30.0 30.0)
           (-30.0 30.0)
  end
  begin
     id 13 
     name thorax
     direction -0.0323701 0.996236 0.0804149   
     length 2.16   
     axis 0 0 0   XYZ
    dof rx ry rz
    limits (-20.0 45.0)
           (-30.0 30.0)
           (-30.0 30.0)
  end
  begin
     id 14 
     name lowerneck
     direction 0.0307935 0.982251 0.185027   
     length 1.43558   
     axis 0 0 0   XYZ
    dof rx ry rz
    limits (-20.0 45.0)
           (-30.0 30.0)
           (-30.0 30.0)
  end
  begin
     id 15 
     name upperneck
     direction -0.0927153 0.994775 0.0427454   
     length 1.44603   
     axis 0 0 0   XYZ
    dof rx ry rz
    limits (-20.0 45.0)
           (-30.0 30.0)
           (-30.0 30.0)
  end
  begin
     id 16
     name head
     direction -0.0341265 0.999406 -0.00472033  
     length 1.45931  
     axis 0 0 0   XYZ
    dof rx ry rz
    limits (-20.0 45.0)
           (-30.0 30.0)
           (-30.0 30.0)
  end
  begin
     id 17 
     name lclavicle
     direction 0.820755 0.555306 -0.134151  
     length 2.66075  
     axis 0 0 0   XYZ
    dof ry rz
    limits (-20.0 10.0)
           (0.0 20.0)
  end
  begin
     id 18 
     name lhumerus
     direction 1 -4.48971e-011 5.24853e-027   
     length 5.0546   
     axis -180 -30 -90   XYZ
    dof rx ry rz
    limits (-60.0 90.0)
           (-90.0 90.0)
           (-90.0 90.0)
  end
  begin
     id 19
     name lradius
     direction 1 -4.48971e-011 2.76575e-028   
     length 3.39013   
     axis -180 -30 -90   XYZ
    dof rx
    limits (-10.0 170.0)
  end
  begin
     id 20
     name lwrist
     direction 1 -4.48939e-011 -2.27826e-027   
     length 1.69507   
     axis 2.17013e-015 90 90   XYZ
    dof ry
    limits (-180.0 0.0)
 end
  begin
     id 21 
     name lhand
     direction 1 -4.49009e-011 -4.55652e-027   
     length 0.572425   
     axis 2.90745e-015 90 90   XYZ
    dof rx rz
    limits (-90.0 90.0)
           (-45.0 45.0)
  end
  begin
     id 22 
     name lfingers
     direction 1 -4.48955e-011 -9.11303e-027   
     length 0.461504   
     axis 5.81489e-015 90 90   XYZ
    dof rx
    limits (0.0 90.0)
  end
  begin
     id 23
     name lthumb
     direction 0.707107 -6.34929e-011 0.707107   
     length 0.66263   
     axis -90 45 2.85299e-015   XYZ
    dof rx rz
    limits (-45.0 45.0)
           (-45.0 45.0)
  end
  begin
     id 24 
     name rclavicle
     direction -0.754477 0.632921 -0.173712   
     length 2.73081  
     axis 0 0 0   XYZ 
    dof ry rz
    limits (-10.0 20.0)
           (-20.0 0.0)
  end
  begin
     id 25 
     name rhumerus
     direction -1 -4.48969e-011 5.1496e-027  
     length 5.0701   
     axis -180 30 90   XYZ
    dof rx ry rz
    limits (-90.0 60.0)
           (-90.0 90.0)
           (-90.0 90.0)
  end
  begin
     id 26 
     name rradius
     direction -1 -4.48967e-011 -7.15624e-028   
     length 3.14957   
     axis -180 30 90   XYZ
    dof rx
    limits (-10.0 170.0)
  end
  begin
     id 27 
     name rwrist
     direction -1 -4.48938e-011 -2.27826e-027   
     length 1.57479   
     axis 2.17013e-015 -90 -90   XYZ
    dof ry
    limits (-180.0 0.0)
  end
  begin
     id 28
     name rhand
     direction -1 -4.49008e-011 -4.55652e-027   
     length 0.718191   
     axis 2.90745e-015 -90 -90   XYZ
    dof rx rz
    limits (-90.0 90.0)
           (-45.0 45.0)
  end
  begin
     id 29
     name rfingers
     direction -1 -4.48953e-011 -9.11303e-027   
     length 0.579024   
     axis 5.81489e-015 -90 -90   XYZ
    dof rx
    limits (0.0 90.0)
  end
  begin
     id 30
     name rthumb
     direction -0.707107 -6.34937e-011 0.707107   
     length 0.831366   
     axis -90 -45 -2.85299e-015   XYZ
    dof rx rz
    limits (-45.0 45.0)
           (-45.0 45.0)
  end
:hierarchy
  begin
    root lhipjoint rhipjoint lowerback
    lhipjoint lfemur
    lfemur ltibia
    ltibia lfoot
    lfoot ltoes
    rhipjoint rfemur
    rfemur rtibia
    rtibia rfoot
    rfoot rtoes
    lowerback upperback
    upperback thorax
    thorax lowerneck lclavicle rclavicle
    lowerneck upperneck
    upperneck head
    lclavicle lhumerus
    lhumerus lradius
    lradius lwrist
    lwrist lhand lthumb
    lhand lfingers
    rclavicle rhumerus
    rhumerus rradius
    rradius rwrist
    rwrist rhand rthumb
    rhand rfingers
  end

#!OML:ASF H:\Male1\Project 1\Capture day 1\Session 1\Male1.ASF
:FULLY-SPECIFIED
:DEGREES
48
root 4.95664 15.5317 -0.199465 160.39 -84.1832 -163.45
lowerback 4.73541 2.12953 0.0742282
upperback 4.73276 2.72335 -0.906914
thorax 2.26413 1.32529 -1.04681
lowerneck -1.51108 2.00249 9.73809
upperneck 5.46994 2.53892 -4.51753
head 2.25064 1.34891 -3.1547
rclavicle -8.54774e-015 1.98785e-015
rhumerus -32.1056 0.030408 -87.9298
rradius 32.4138
rwrist -14.7118
rhand -14.4977 -0.163716
rfingers 7.12502
rthumb 11.6491 -29.8199
lclavicle -8.54774e-015 1.98785e-015
lhumerus -29.7457 20.1652 74.3905
lradius 25.2777
lwrist -10.5077
lhand -16.3391 9.50032
lfingers 7.12502
lthumb 9.87304 39.2488
rfemur -1.0379 17.7963 24.4335
rtibia 17.6777
rfoot -22.7192 -27.5014
rtoes -14.2681
lfemur -1.92208 -17.9737 -20.713
ltibia 22.7178
lfoot -23.7372 27.3005
ltoes 1.41744
49
root 4.96138 15.5294 -0.19895 160.34 -84.368 -163.469
lowerback 4.76179 2.10636 0.0991152
upperback 4.77985 2.69164 -0.925901
thorax 2.29976 1.30982 -1.07942
lowerneck -1.67652 2.06195 9.59345
upperneck 5.92512 2.59958 -4.38556
head 2.43213 1.38417 -3.08185
rclavicle -1.44119e-014 -4.37326e-015
rhumerus -32.0155 0.00192882 -87.9089
rradius 32.4283
rwrist -14.7996
rhand -14.5396 -0.0544508
rfingers 7.12502
rthumb 11.6088 -29.7129
lclavicle -1.44119e-014 -4.37326e-015
lhumerus -29.6449 20.0575 74.4869
lradius 25.3213
lwrist -10.4932
lhand -16.3336 9.609
lfingers 7.12502
lthumb 9.8783 39.3573
rfemur -0.990285 17.6051 24.3719
rtibia 17.7345
rfoot -22.5345 -27.5484
rtoes -15.018
lfemur -1.8937 -17.9682 -20.7806
ltibia 22.7318
lfoot -23.5999 27.1656
ltoes 1.22769
50
root 4.96213 15.5255 -0.195235 161.923 -84.5552 -165.158
lowerback 4.70759 2.09308 0.0292493
upperback 4.89301 2.66979 -1.00041
thorax 2.44728 1.29667 -1.11204
lowerneck -2.04294 2.17261 9.48675
upperneck 6.63814 2.71031 -4.29497
head 2.7456 1.44636 -3.03071
rclavicle -1.42131e-014 2.10712e-014
rhumerus -31.8331 -0.169801 -87.8606
rradius 32.4683
rwrist -14.7441
rhand -14.5391 -0.100549
rfingers 7.12502
rthumb 11.6093 -29.759
lclavicle -1.42131e-014 2.10712e-014
lhumerus -29.4067 20.0202 74.6123
lradius 25.31
lwrist -10.423
lhand -16.2323 9.68153
lfingers 7.12502
lthumb 9.97609 39.4251
rfemur -0.946099 17.2526 24.1167
rtibia 17.8578
rfoot -22.373 -27.4465
rtoes -15.9675
lfemur -1.76866 -18.0049 -21.0764
ltibia 22.6997
lfoot -23.4795 27.1623
ltoes 0.798743
51
root 4.96326 15.522 -0.193161 162.917 -84.634 -166.281
lowerback 4.67643 2.06628 -0.00103265
upperback 5.01385 2.63006 -1.03153
thorax 2.58939 1.2748 -1.12264
lowerneck -2.34853 2.33737 9.34987
upperneck 7.48079 2.89419 -4.14602
head 3.09882 1.54715 -2.95194
rclavicle -5.06901e-015 5.96354e-015
rhumerus -31.6653 -0.204845 -87.8686
rradius 32.5592
rwrist -14.7369
rhand -14.6389 -0.197688
rfingers 7.12502
rthumb 11.513 -29.8615
lclavicle -5.06901e-015 5.96354e-015
lhumerus -29.1459 20.0439 74.7529
lradius 25.3419
lwrist -9.92817
lhand -16.0107 9.81287
lfingers 7.12502
lthumb 10.1898 39.5461
rfemur -0.91557 16.9988 23.9759
rtibia 18.0504
rfoot -22.4212 -27.2254
rtoes -15.9784
lfemur -1.58851 -18.0158 -21.278
ltibia 22.6156
lfoot -23.3499 27.2202
ltoes 0.298609
52
root 4.96737 15.5196 -0.193373 163.515 -84.7341 -166.972
lowerback 4.70342 2.02083 -0.0564411
upperback 5.07251 2.56568 -1.03727
thorax 2.63163 1.23994 -1.0961
lowerneck -2.2729 2.55046 8.92596
upperneck 8.24897 3.16476 -3.70618
head 3.34604 1.69108 -2.71378
rclavicle 2.55438e-014 -1.55052e-014
rhumerus -31.5574 0.00804115 -87.9456
rradius 32.6276
rwrist -14.8708
rhand -14.8104 -0.233299
rfingers 7.12502
rthumb 11.3476 -29.9063
lclavicle 2.55438e-014 -1.55052e-014
lhumerus -28.9825 20.003 74.8846
lradius 25.4613
lwrist -8.89295
lhand -15.8078 9.93647
lfingers 7.12502
lthumb 10.3856 39.66
rfemur -0.935075 16.8422 23.8821
rtibia 18.2706
rfoot -22.5838 -27.061
rtoes -15.2875
lfemur -1.45535 -17.9691 -21.3935
ltibia 22.504
lfoot -23.1492 27.1865
ltoes 0.0411513
53
root 4.975 15.5181 -0.194889 164.902 -84.7979 -168.415
lowerback 4.74639 2.01411 -0.179818
upperback 5.11037 2.55145 -1.06524
thorax 2.64245 1.22843 -1.05658
lowerneck -2.63536 2.71869 8.67528
upperneck 9.599 3.33827 -3.49823
head 3.8903 1.78784 -2.59494
rclavicle 4.42296e-014 -1.39149e-014
rhumerus -31.418 0.318465 -88.0395
rradius 32.6721
rwrist -15.1245
rhand -14.8359 -0.240431
rfingers 7.12502
rthumb 11.323 -29.9148
lclavicle 4.42296e-014 -1.39149e-014
lhumerus -28.7882 19.9215 75.0328
lradius 25.6154
lwrist -7.61258
lhand -15.6507 9.98607
lfingers 7.12502
lthumb 10.5371 39.7019
rfemur -1.01433 16.818 23.7306
rtibia 18.4438
rfoot -22.6999 -27.0472
rtoes -14.5386
lfemur -1.40888 -17.8125 -21.525
ltibia 22.4309
lfoot -22.8822 27.127
ltoes -0.212235
54
root 4.98236 15.5177 -0.196718 165.981 -84.7573 -169.58
lowerback 4.79537 2.03084 -0.247064
upperback 5.18217 2.56845 -1.08383
thorax 2.68791 1.23355 -1.03903
lowerneck -4.27548 2.71395 9.17451
upperneck 12.6441 3.23873 -4.36054
head 4.71903 1.71191 -2.68017
rclavicle 1.09332e-014 1.70955e-014
rhumerus -31.2477 0.574893 -88.1108
rradius 32.7607
rwrist -15.3975
rhand -14.8147 -0.251408
rfingers 7.12502
rthumb 11.3434 -29.9246
lclavicle 1.09332e-014 1.70955e-014
lhumerus -28.5316 19.9116 75.1793
lradius 25.7913
lwrist -6.55071
lhand -15.5328 10.0104
lfingers 7.12502
lthumb 10.6508 39.7204
rfemur -1.02368 17.0366 23.637
rtibia 18.5174
rfoot -23.3605 -26.7826
rtoes -12.2966
lfemur -1.3894 -17.561 -21.5996
ltibia 22.4659
lfoot -22.6628 27.061
ltoes -0.642305
55
root 4.98944 15.516 -0.198029 165.97 -84.664 -169.652
lowerback 4.82341 2.03781 -0.199212
upperback 5.26319 2.57555 -1.08186
thorax 2.75875 1.23714 -1.0634
lowerneck -4.95403 2.8544 9.13901
upperneck 14.5887 3.34685 -4.32386
head 5.44295 1.76695 -2.65627
rclavicle 1.53064e-014 -1.51076e-014
rhumerus -31.1097 0.739686 -88.1761
rradius 32.9634
rwrist -15.5625
rhand -14.7795 -0.37206
rfingers 7.12502
rthumb 11.3774 -30.0434
lclavicle 1.53064e-014 -1.51076e-014
lhumerus -28.2552 19.834 75.3387
lradius 26.0051
lwrist -5.66676
lhand -15.6051 10.1828
lfingers 7.12502
lthumb 10.5811 39.8965
rfemur -0.971265 17.313 23.6543
rtibia 18.492
rfoot -24.1483 -26.3243
rtoes -9.50744
lfemur -1.43156 -17.2808 -21.5546
ltibia 22.6323
lfoot -22.5838 26.9059
ltoes -0.825258
56
root 5.00501 15.5154 -0.201729 163.938 -84.4453 -167.638
lowerback 4.90916 2.05805 0.00210303
upperback 5.29943 2.6043 -1.02153
thorax 2.75555 1.25631 -1.11682
lowerneck -5.23639 2.98189 9.15053
upperneck 16.3271 3.46537 -4.33087
head 6.04615 1.82412 -2.65882
rclavicle 1.38155e-014 6.36111e-015
rhumerus -31.0126 0.936423 -88.2645
rradius 33.2526
rwrist -15.6252
rhand -14.6766 -0.323575
rfingers 7.12502
rthumb 11.4766 -29.9894
lclavicle 1.38155e-014 6.36111e-015
lhumerus -27.9749 19.4086 75.5822
lradius 26.3304
lwrist -4.77903
lhand -15.96 10.6419
lfingers 7.12502
lthumb 10.2387 40.3727
rfemur -1.01635 17.4746 23.9615
rtibia 18.4308
rfoot -23.787 -26.4653
rtoes -9.65213
lfemur -1.62432 -16.9636 -21.2048
ltibia 22.8746
lfoot -22.4714 26.7851
ltoes -1.01742
57
root 5.02993 15.5157 -0.207975 161.16 -84.0819 -164.875
lowerback 5.14298 2.13752 0.306141
upperback 5.30763 2.71364 -0.942142
thorax 2.64691 1.31845 -1.21618
lowerneck -5.37593 3.07822 9.08348
upperneck 18.1355 3.52999 -4.21262
head 6.64864 1.85601 -2.61633
rclavicle -1.63997e-014 5.96354e-015
rhumerus -30.8981 1.22432 -88.3836
rradius 33.4895
rwrist -15.7942
rhand -14.693 0.0246914
rfingers 7.12502
rthumb 11.4608 -29.642
lclavicle -1.63997e-014 5.96354e-015
lhumerus -27.6692 18.7978 75.8176
lradius 26.6361
lwrist -4.45659
lhand -16.2257 10.7403
lfingers 7.12502
lthumb 9.98242 40.4835
rfemur -1.12149 17.6509 24.4617
rtibia 18.3514
rfoot -22.5621 -27.1067
rtoes -12.1751
lfemur -1.89346 -16.6351 -20.6668
ltibia 23.165
lfoot -22.4728 26.675
ltoes -1.0537
58
root 5.0523 15.5136 -0.208433 161.119 -83.9292 -164.873
lowerback 5.31436 2.20516 0.444286
upperback 5.37536 2.80305 -0.993177
thorax 2.63398 1.36671 -1.35343
lowerneck -5.57934 3.17469 8.89583
upperneck 20.1441 3.55161 -3.90593
head 7.33057 1.86997 -2.49816
rclavicle 4.82053e-014 -1.82882e-014
rhumerus -30.6898 1.44644 -88.4767
rradius 33.6858
rwrist -16.063
rhand -14.7419 0.195588
rfingers 7.12502
rthumb 11.4137 -29.4738
lclavicle 4.82053e-014 -1.82882e-014
lhumerus -27.2845 18.1705 76.0402
lradius 26.93
lwrist -4.70764
lhand -16.1819 10.5763
lfingers 7.12502
lthumb 10.0247 40.3176
rfemur -1.17773 17.6597 24.5329
rtibia 18.2575
rfoot -21.7578 -27.3475
rtoes -13.5836
lfemur -2.11617 -16.4059 -20.5282
ltibia 23.4596
lfoot -22.7277 26.3968
ltoes -0.568622
59
root 5.06926 15.5102 -0.204688 161.528 -83.9976 -165.34
lowerback 5.43943 2.22993 0.588776
upperback 5.46902 2.83645 -1.1276
thorax 2.67764 1.38883 -1.5763
lowerneck -5.7481 3.26417 8.82892
upperneck 22.2317 3.53587 -3.64037
head 8.04962 1.86904 -2.41912
rclavicle -3.91606e-014 3.97569e-015
rhumerus -30.519 1.35737 -88.535
rradius 33.9795
rwrist -16.1337
rhand -14.719 0.133902
rfingers 7.12502
rthumb 11.4358 -29.5342
lclavicle -3.91606e-014 3.97569e-015
lhumerus -26.8833 17.3174 76.2936
lradius 27.3349
lwrist -4.99445
lhand -16.2684 10.4399
lfingers 7.12502
lthumb 9.94121 40.1851
rfemur -1.22734 17.4358 24.4231
rtibia 18.3075
rfoot -21.5633 -27.2186
rtoes -13.6509
lfemur -2.2082 -16.164 -20.5504
ltibia 23.6131
lfoot -22.8231 25.9856
ltoes -0.378498
60
root 5.08512 15.5089 -0.205413 160.322 -83.9584 -164.232
lowerback 5.61932 2.28317 0.85005
upperback 5.59592 2.90929 -1.19958
thorax 2.73041 1.43319 -1.80293
lowerneck -6.18219 3.2864 9.00691
upperneck 24.7192 3.39996 -3.66361
head 8.97871 1.80235 -2.49625
rclavicle -1.40143e-014 1.59028e-015
rhumerus -30.4324 1.20102 -88.588
rradius 34.4224
rwrist -16.1604
rhand -14.8011 0.188963
rfingers 7.12502
rthumb 11.3566 -29.4835
lclavicle -1.40143e-014 1.59028e-015
lhumerus -26.4029 16.4764 76.5737
lradius 27.6977
lwrist -5.37434
lhand -16.4575 10.1513
lfingers 7.12502
lthumb 9.75882 39.9052
rfemur -1.34172 17.394 24.5722
rtibia 18.5868
rfoot -21.6655 -27.1249
rtoes -13.3532
lfemur -2.16208 -15.8208 -20.3458
ltibia 23.5781
lfoot -22.6119 25.694
ltoes -0.911389
61
root 5.10031 15.5069 -0.206117 162.302 -84.0378 -166.344
lowerback 5.74843 2.29876 0.640327
upperback 5.82314 2.91171 -1.28619
thorax 2.88936 1.42513 -1.77587
lowerneck -6.18848 3.37082 8.53956
upperneck 26.6403 3.3141 -3.00938
head 9.63808 1.76702 -2.22563
rclavicle -2.40529e-014 1.59028e-015
rhumerus -30.1459 1.55673 -88.6061
rradius 34.8256
rwrist -16.489
rhand -14.9776 0.232683
rfingers 7.12502
rthumb 11.1864 -29.4491
lclavicle -2.40529e-014 1.59028e-015
lhumerus -25.8496 15.8508 76.9302
lradius 28.117
lwrist -5.67649
lhand -16.503 10.2313
lfingers 7.12502
lthumb 9.71487 39.9873
rfemur -1.45544 17.3304 24.3262
rtibia 18.9131
rfoot -21.8307 -26.9741
rtoes -12.9501
lfemur -2.10483 -15.4663 -20.5463
ltibia 23.5132
lfoot -22.2303 25.5557
ltoes -2.05842
62
root 5.11772 15.5009 -0.2018 166.911 -84.2561 -171.061
lowerback 5.87037 2.23741 0.0993363
upperback 6.07751 2.79862 -1.40888
thorax 3.06183 1.34588 -1.59729
lowerneck -6.135 3.54509 8.31655
upperneck 28.515 3.35853 -2.60936
head 10.3097 1.78684 -2.06845
rclavicle -8.84592e-015 -1.51076e-014
rhumerus -29.7137 2.35718 -88.6089
rradius 35.1653
rwrist -17.0519
rhand -15.0518 0.0344532
rfingers 7.12502
rthumb 11.1148 -29.6512
lclavicle -8.84592e-015 -1.51076e-014
lhumerus -25.4053 15.1501 77.3121
lradius 28.7627
lwrist -5.60999
lhand -16.5326 10.4752
lfingers 7.12502
lthumb 9.68628 40.2325
rfemur -1.56467 16.96 23.71
rtibia 19.1641
rfoot -21.5816 -26.8028
rtoes -13.5893
lfemur -2.14691 -15.1405 -21.0757
ltibia 23.5406
lfoot -21.8715 25.3522
ltoes -2.88881
